<?xml version="1.0" encoding="utf-8"?>
<!-- Generator: Adobe Illustrator 16.0.0, SVG Export Plug-In . SVG Version: 6.00 Build 0)  -->
<!DOCTYPE svg PUBLIC "-//W3C//DTD SVG 1.1//EN" "http://www.w3.org/Graphics/SVG/1.1/DTD/svg11.dtd">
<svg version="1.1" id="Layer_1" xmlns="http://www.w3.org/2000/svg" xmlns:xlink="http://www.w3.org/1999/xlink" x="0px" y="0px"
	 width="351.121px" height="351px" viewBox="0 0 351.121 351" enable-background="new 0 0 351.121 351" xml:space="preserve">
<g>
	<rect x="0.5" y="0.5" fill="none" stroke="#3E71BB" stroke-miterlimit="10" width="50" height="350"/>
	<rect x="50.5" y="0.5" fill="none" stroke="#3E71BB" stroke-miterlimit="10" width="50" height="350"/>
	<rect x="100.5" y="0.5" fill="none" stroke="#3E71BB" stroke-miterlimit="10" width="50" height="350"/>
	<rect x="150.5" y="0.5" fill="none" stroke="#3E71BB" stroke-miterlimit="10" width="50" height="350"/>
	<rect x="200.5" y="0.5" fill="none" stroke="#3E71BB" stroke-miterlimit="10" width="50" height="350"/>
	<rect x="250.5" y="0.5" fill="none" stroke="#3E71BB" stroke-miterlimit="10" width="50" height="350"/>
	<rect x="300.5" y="0.5" fill="none" stroke="#3E71BB" stroke-miterlimit="10" width="50" height="350"/>
	<rect x="0.5" y="0.5" fill="none" stroke="#3E71BB" stroke-miterlimit="10" width="350" height="50"/>
	<rect x="0.5" y="50.5" fill="none" stroke="#3E71BB" stroke-miterlimit="10" width="350" height="50"/>
	<rect x="0.5" y="100.5" fill="none" stroke="#3E71BB" stroke-miterlimit="10" width="350" height="50"/>
	<rect x="0.5" y="150.5" fill="none" stroke="#3E71BB" stroke-miterlimit="10" width="350" height="50"/>
	<rect x="0.5" y="200.5" fill="none" stroke="#3E71BB" stroke-miterlimit="10" width="350" height="50"/>
	<rect x="0.5" y="250.5" fill="none" stroke="#3E71BB" stroke-miterlimit="10" width="350" height="50"/>
	<rect x="0.5" y="300.5" fill="none" stroke="#3E71BB" stroke-miterlimit="10" width="350" height="50"/>
</g>
<circle fill="#BC85BC" stroke="#3E71BB" stroke-miterlimit="10" cx="33.667" cy="169.25" r="8.625"/>
<circle fill="#BC85BC" stroke="#3E71BB" stroke-miterlimit="10" cx="23.417" cy="184.125" r="8.625"/>
<circle fill="#BC85BC" stroke="#3E71BB" stroke-miterlimit="10" cx="15.917" cy="168" r="8.625"/>
<circle fill="#787878" stroke="#2A4483" stroke-width="2" stroke-miterlimit="10" cx="325.5" cy="176.917" r="18.5"/>
</svg>
