<?xml version="1.0" encoding="utf-8"?>
<!-- Generator: Adobe Illustrator 16.0.0, SVG Export Plug-In . SVG Version: 6.00 Build 0)  -->
<!DOCTYPE svg PUBLIC "-//W3C//DTD SVG 1.1//EN" "http://www.w3.org/Graphics/SVG/1.1/DTD/svg11.dtd">
<svg version="1.1" id="Layer_1" xmlns="http://www.w3.org/2000/svg" xmlns:xlink="http://www.w3.org/1999/xlink" x="0px" y="0px"
	 width="386px" height="238.557px" viewBox="0 0 386 238.557" enable-background="new 0 0 386 238.557" xml:space="preserve">
<g>
	<g>
		<path d="M245.907,58.437l-60.493,98.944l18.653,12.952l11.74-22.139c0,0,42.14-0.451,42.58,0c0.44,0.452,11.6,25,11.6,25
			l26.723-1.205L245.907,58.437z M227.848,128.466l14.535-25.752l11.894,26.656L227.848,128.466z"/>
		<path fill="#FFFFFF" d="M245.907,58.437l50.803,113.552l-26.723,1.205c0,0-11.159-24.548-11.6-25
			c-0.146-0.15-4.926-0.2-11.234-0.2c-12.617,0-31.346,0.2-31.346,0.2l-11.74,22.139l-18.653-12.952L245.907,58.437 M254.276,129.37
			l-11.894-26.656l-14.535,25.752L254.276,129.37 M246.869,43.256l-6.933,11.341l-60.493,98.944l-3.616,5.913l5.636,3.913
			l18.654,12.952l6.431,4.465l3.711-6.997l9.76-18.405c6.24-0.059,18.268-0.158,27.135-0.158c3.098,0,5.274,0.012,6.801,0.028
			c2.325,4.965,6.556,14.201,9.646,20.996l1.99,4.38l4.707-0.212l26.723-1.205l10.465-0.472l-4.369-9.765L252.313,55.422
			L246.869,43.256L246.869,43.256z M239.843,121.644l1.807-3.202l1.479,3.313L239.843,121.644L239.843,121.644z"/>
	</g>
</g>
<g>
	<polygon points="124.675,63.658 184.582,63.658 190.65,86.029 151.104,86.029 151.104,106.83 179.884,106.83 179.884,128.718 
		151.692,128.718 151.692,152.612 194.957,152.612 188.889,174.7 124.675,174.7 	"/>
	<path fill="#FFFFFF" d="M184.582,63.658l6.068,22.371h-39.546v20.801h28.779v21.888h-28.192v23.895h43.265l-6.068,22.088h-64.213
		V63.658H184.582 M189.937,56.429h-5.354h-59.907h-7.048v7.229V174.7v7.229h7.048h64.213h5.336l1.447-5.269l6.069-22.086l2.525-9.19
		h-9.31H158.74v-9.438h21.144h7.048v-7.229V106.83v-7.229h-7.048h-21.731v-6.344h32.498h9.276l-2.487-9.167l-6.067-22.371
		L189.937,56.429L189.937,56.429z"/>
</g>
<g>
	<polygon points="289.712,63.658 316.923,61.851 312.421,152.863 354.12,154.068 346.045,178.314 285.845,176.056 	"/>
	<path fill="#FFFFFF" d="M316.923,61.851l-4.502,91.012l41.699,1.205l-8.075,24.246l-60.2-2.259l3.867-112.397L316.923,61.851
		 M324.363,54.113l-7.896,0.525l-27.212,1.807l-6.362,0.422l-0.226,6.536l-3.866,112.398l-0.249,7.214l7.034,0.264l60.199,2.26
		l5.234,0.196l1.693-5.084l8.075-24.247l3.093-9.285l-9.563-0.277l-34.493-0.995l4.137-83.629L324.363,54.113L324.363,54.113z"/>
</g>
<g>
	<g>
		<path d="M124.676,100.807c-15.27-47.991-61.081-39.357-61.081-39.357L27.377,66.67l15.662,111.645
			C106.078,170.483,139.946,148.797,124.676,100.807z M68.489,152.612l-12.726-65.46c5.286-1.205,40.134-6.626,48.356,24.498
			C112.342,142.773,68.489,152.612,68.489,152.612z"/>
		<path fill="#FFFFFF" d="M71.803,60.844c13.898,0,41.644,4.672,52.873,39.962c15.27,47.99-18.598,69.677-81.637,77.508
			L27.377,66.67l36.218-5.221C63.595,61.449,66.801,60.844,71.803,60.844 M68.489,152.612c0,0,43.853-9.839,35.63-40.963
			c-5.722-21.66-24.338-25.621-36.913-25.62c-5.494,0-9.836,0.756-11.443,1.123L68.489,152.612 M71.803,53.616
			c-5.004,0-8.442,0.541-9.306,0.692l-36.101,5.204l-7.002,1.009l1.007,7.179l15.662,111.644l0.982,6.997l6.842-0.85
			c44.545-5.534,72.119-17.753,84.299-37.355c8.322-13.393,9.395-30.071,3.19-49.572C118.468,57.996,85.414,53.616,71.803,53.616
			L71.803,53.616z M64.154,93.346c0.965-0.055,1.99-0.087,3.053-0.087c16.424-0.001,26.555,6.824,30.11,20.282
			c1.435,5.431,0.892,10.168-1.66,14.481c-4.488,7.584-14.399,12.674-21.767,15.41L64.154,93.346L64.154,93.346z"/>
	</g>
</g>
<g>
	<path fill="#3F5EAE" d="M382,4v230.557H4V4H382 M382,0H4C1.791,0,0,1.791,0,4v230.557c0,2.209,1.791,4,4,4h378c2.209,0,4-1.791,4-4
		V4C386,1.791,384.209,0,382,0L382,0z"/>
</g>
</svg>
