<?xml version="1.0" encoding="utf-8"?>
<!-- Generator: Adobe Illustrator 16.0.0, SVG Export Plug-In . SVG Version: 6.00 Build 0)  -->
<!DOCTYPE svg PUBLIC "-//W3C//DTD SVG 1.1//EN" "http://www.w3.org/Graphics/SVG/1.1/DTD/svg11.dtd">
<svg version="1.1" id="Layer_1" xmlns="http://www.w3.org/2000/svg" xmlns:xlink="http://www.w3.org/1999/xlink" x="0px" y="0px"
	 width="101.999px" height="141.118px" viewBox="0 0 101.999 141.118" enable-background="new 0 0 101.999 141.118"
	 xml:space="preserve">
<g>
	<g>
		<path fill="#14193E" d="M70.928,123.408c-0.396,0-0.792-0.052-1.179-0.154L9.42,107.199c-1.18-0.314-2.167-1.069-2.78-2.125
			c-0.612-1.057-0.777-2.288-0.463-3.469L32.178,3.897c0.533-2,2.349-3.397,4.416-3.397c0.396,0,0.792,0.052,1.178,0.154
			l60.331,16.055c1.18,0.314,2.167,1.069,2.779,2.125c0.612,1.056,0.776,2.288,0.463,3.468l-26.001,97.709
			C74.812,122.012,72.995,123.408,70.928,123.408z"/>
		<g>
			<path fill="#2F52A6" d="M36.594,1c0.347,0,0.699,0.044,1.05,0.138l60.33,16.055c2.173,0.578,3.466,2.809,2.888,4.981
				L74.86,119.883c-0.484,1.822-2.132,3.025-3.933,3.025c-0.347,0-0.699-0.044-1.05-0.138l-60.33-16.055
				c-2.173-0.578-3.466-2.809-2.888-4.981L32.662,4.025C33.147,2.203,34.793,1,36.594,1 M36.594,0L36.594,0
				c-2.293,0-4.308,1.549-4.898,3.768L5.694,101.478c-0.348,1.309-0.166,2.675,0.513,3.847c0.679,1.173,1.774,2.01,3.083,2.358
				l60.33,16.055c0.428,0.113,0.867,0.171,1.307,0.171c2.294,0,4.309-1.55,4.899-3.769l26.001-97.708
				c0.719-2.703-0.895-5.486-3.598-6.205L37.901,0.171C37.473,0.058,37.033,0,36.594,0L36.594,0z"/>
		</g>
	</g>
	
		<rect x="28.572" y="17.796" transform="matrix(0.9664 0.2572 -0.2572 0.9664 17.6564 -11.7684)" fill="#01040C" stroke="#2F52A6" stroke-miterlimit="10" width="50.498" height="87.646"/>
	<text transform="matrix(0.9664 0.2572 -0.2572 0.9664 32.8408 9.98)" fill="#FFFFFF" font-family="'Centaur'" font-size="11.1468">A</text>
	
		<text transform="matrix(-0.9664 -0.2572 0.2572 -0.9664 73.501 112.2041)" fill="#FFFFFF" font-family="'Centaur'" font-size="11.1468">J</text>
	<polygon fill="#FFFFFF" points="36.04,20.274 32.51,23.602 30.774,18.873 34.631,15.632 	"/>
	<polygon fill="#FFFFFF" points="76.982,103.595 73.452,106.923 71.715,102.193 75.573,98.953 	"/>
</g>
<g>
	<g>
		<path fill="#14193E" d="M31.574,140.618c-2.057,0-3.871-1.388-4.41-3.375L0.66,39.669C0,37.237,1.441,34.721,3.873,34.06
			l60.248-16.365c0.393-0.107,0.797-0.161,1.2-0.161c2.057,0,3.869,1.388,4.409,3.375l26.504,97.574
			c0.66,2.433-0.781,4.949-3.214,5.609l-60.247,16.365C32.381,140.563,31.978,140.618,31.574,140.618z"/>
		<path fill="#2F52A6" d="M65.321,18.034c1.792,0,3.434,1.193,3.927,3.006l26.504,97.574c0.589,2.17-0.692,4.407-2.862,4.996
			l-60.247,16.365c-0.357,0.097-0.716,0.144-1.069,0.144c-1.793,0-3.436-1.193-3.928-3.006L1.143,39.539
			c-0.589-2.17,0.692-4.407,2.862-4.997l60.248-16.365C64.609,18.08,64.969,18.034,65.321,18.034 M65.321,17.034L65.321,17.034
			c-0.448,0-0.896,0.06-1.331,0.179L3.742,33.577c-2.698,0.733-4.297,3.525-3.564,6.224l26.504,97.573
			c0.599,2.204,2.61,3.744,4.893,3.744c0.448,0,0.896-0.061,1.331-0.179l60.247-16.365c2.698-0.732,4.298-3.523,3.565-6.223
			L70.213,20.777C69.614,18.573,67.603,17.034,65.321,17.034L65.321,17.034z"/>
	</g>
	
		<rect x="23.082" y="34.932" transform="matrix(0.965 -0.2621 0.2621 0.965 -18.9544 15.4232)" fill="#01040C" stroke="#2F52A6" stroke-miterlimit="10" width="50.498" height="87.646"/>
	<g>
		<path fill="#FFFFFF" d="M4.311,37.595l-0.085-0.191c0.077-0.021,0.341-0.081,0.792-0.181c0.45-0.1,0.715-0.16,0.796-0.182
			c0.238-0.064,0.698-0.212,1.38-0.443l0.065,0.197c-0.315,0.108-0.529,0.209-0.642,0.304s-0.165,0.233-0.157,0.415
			c0.008,0.182,0.067,0.488,0.175,0.917c0.042,0.199,0.1,0.443,0.176,0.731c0.076,0.288,0.147,0.56,0.212,0.817l0.219,0.804
			c0.037,0.137,0.159,0.567,0.365,1.292c0.206,0.724,0.359,1.271,0.459,1.639c0.07,0.259,0.125,0.495,0.164,0.706
			c-0.187,0.518-0.399,0.993-0.639,1.427c-0.239,0.434-0.525,0.695-0.858,0.786c-0.077,0.021-0.161,0.016-0.252-0.017
			c-0.092-0.032-0.144-0.071-0.156-0.117c-0.017-0.063,0.049-0.172,0.199-0.327c0.15-0.154,0.259-0.241,0.329-0.259
			c0.021-0.006,0.128-0.001,0.321,0.014c0.438-0.119,0.399-1.124-0.114-3.015l-0.566-2.085c-0.238-0.875-0.434-1.558-0.588-2.049
			c-0.153-0.49-0.275-0.813-0.364-0.967c-0.089-0.154-0.19-0.254-0.304-0.298c-0.118-0.047-0.268-0.057-0.451-0.03
			S4.445,37.548,4.311,37.595z"/>
	</g>
	
		<text transform="matrix(-0.965 0.2621 -0.2621 -0.965 90.7266 112.6514)" fill="#FFFFFF" font-family="'Centaur'" font-size="11.1468">J</text>
	<polygon fill="#FFFFFF" points="12.214,51.902 10.829,56.551 6.955,53.331 8.667,48.593 	"/>
	<polygon fill="#FFFFFF" points="89.419,103.457 88.034,108.106 84.16,104.886 85.872,100.147 	"/>
</g>
</svg>
