<?xml version="1.0" encoding="utf-8"?>
<!-- Generator: Adobe Illustrator 16.0.0, SVG Export Plug-In . SVG Version: 6.00 Build 0)  -->
<!DOCTYPE svg PUBLIC "-//W3C//DTD SVG 1.1//EN" "http://www.w3.org/Graphics/SVG/1.1/DTD/svg11.dtd">
<svg version="1.1" id="Layer_1" xmlns="http://www.w3.org/2000/svg" xmlns:xlink="http://www.w3.org/1999/xlink" x="0px" y="0px"
	 width="193px" height="193px" viewBox="0 0 193 193" enable-background="new 0 0 193 193" xml:space="preserve">
<path d="M96.5,193C43.29,193,0,149.71,0,96.5C0,43.29,43.29,0,96.5,0C149.709,0,193,43.29,193,96.5C193,149.71,149.709,193,96.5,193
	z M96.5,7C47.149,7,7,47.149,7,96.5C7,145.851,47.149,186,96.5,186c49.35,0,89.5-40.148,89.5-89.5C186,47.149,145.85,7,96.5,7z"/>
<polygon points="150.712,103.5 92.5,103.5 92.5,26.833 99.66,26.833 99.66,96.34 150.712,96.34 "/>
</svg>
