<?xml version="1.0" encoding="utf-8"?>
<!-- Generator: Adobe Illustrator 16.0.0, SVG Export Plug-In . SVG Version: 6.00 Build 0)  -->
<!DOCTYPE svg PUBLIC "-//W3C//DTD SVG 1.1//EN" "http://www.w3.org/Graphics/SVG/1.1/DTD/svg11.dtd">
<svg version="1.1" xmlns="http://www.w3.org/2000/svg" xmlns:xlink="http://www.w3.org/1999/xlink" x="0px" y="0px" width="864px"
	 height="864px" viewBox="0 0 864 864" enable-background="new 0 0 864 864" xml:space="preserve">
<g id="Layer_1" display="none">
	
		<image display="inline" overflow="visible" width="246" height="246" xlink:href="BD09C880.jpg"  transform="matrix(1 0 0 1 310 310)">
	</image>
</g>
<g id="Layer_2">
	<rect x="729.187" y="282.101" width="94.244" height="508.899"/>
	<rect x="617.044" y="332.99" width="94.242" height="458.01"/>
	<rect x="504.899" y="446.08" width="94.243" height="344.92"/>
	<rect x="392.755" y="527.124" width="94.243" height="263.876"/>
	<rect x="280.611" y="479.061" width="94.242" height="311.939"/>
	<rect x="168.466" y="621.366" width="94.242" height="169.634"/>
	<rect x="56.323" y="643.984" width="94.242" height="147.016"/>
	<polygon points="79.871,511.104 313.588,287.755 453.065,377.282 669.816,201.054 722.589,259.482 800.813,71.001 599.143,101.159 
		636.834,152.99 454.949,300.946 302.278,212.362 38.403,473.407 	"/>
</g>
</svg>
