<?xml version="1.0" encoding="utf-8"?>
<!-- Generator: Adobe Illustrator 16.0.0, SVG Export Plug-In . SVG Version: 6.00 Build 0)  -->
<!DOCTYPE svg PUBLIC "-//W3C//DTD SVG 1.1//EN" "http://www.w3.org/Graphics/SVG/1.1/DTD/svg11.dtd">
<svg version="1.1" id="Layer_2" xmlns="http://www.w3.org/2000/svg" xmlns:xlink="http://www.w3.org/1999/xlink" x="0px" y="0px"
	 width="251px" height="311.5px" viewBox="0 0 251 311.5" enable-background="new 0 0 251 311.5" xml:space="preserve">
<path d="M234,311.5H17c-9.374,0-17-7.626-17-17V17C0,7.626,7.626,0,17,0h217c9.374,0,17,7.626,17,17v277.5
	C251,303.874,243.374,311.5,234,311.5z M17,10c-3.86,0-7,3.14-7,7v277.5c0,3.859,3.14,7,7,7h217c3.859,0,7-3.141,7-7V17
	c0-3.86-3.141-7-7-7H17z"/>
<path d="M203.25,89.25H46v-48h157.25V89.25z M56,79.25h137.25v-28H56V79.25z"/>
<rect x="44.25" y="106.75" width="41.5" height="41.5"/>
<rect x="44.25" y="165.25" width="41.5" height="41.5"/>
<rect x="44.25" y="223.75" width="41.5" height="41.5"/>
<rect x="103.875" y="106.75" width="41.5" height="41.5"/>
<rect x="164.875" y="106.75" width="41.5" height="41.5"/>
<rect x="164.875" y="165.25" width="41.5" height="100"/>
<rect x="103.875" y="165.25" width="41.5" height="41.5"/>
<rect x="103.875" y="223.75" width="41.5" height="41.5"/>
</svg>
