<?xml version="1.0" encoding="utf-8"?>
<!-- Generator: Adobe Illustrator 16.0.0, SVG Export Plug-In . SVG Version: 6.00 Build 0)  -->
<!DOCTYPE svg PUBLIC "-//W3C//DTD SVG 1.1//EN" "http://www.w3.org/Graphics/SVG/1.1/DTD/svg11.dtd">
<svg version="1.1" xmlns="http://www.w3.org/2000/svg" xmlns:xlink="http://www.w3.org/1999/xlink" x="0px" y="0px"
	 width="538.973px" height="538.846px" viewBox="0 0 538.973 538.846" enable-background="new 0 0 538.973 538.846"
	 xml:space="preserve">
<g id="Layer_1">
</g>
<g id="Layer_2">
	<g>
		<path d="M447.571,103.567l18.478-18.478c-1.97-2.097-3.963-4.178-6.007-6.222C410.372,29.197,344.726,1.318,274.691,0v26.002
			C342.847,27.44,404.193,57.021,447.571,103.567z"/>
		<path d="M435.343,447.508l18.478,18.478c2.098-1.97,4.178-3.963,6.222-6.007c45.009-45.008,72.12-103.138,77.796-165.761h-26.119
			C505.595,354.494,477.383,408.328,435.343,447.508z"/>
		<path d="M473.044,92.817l-18.524,18.524c36.421,42.569,58.453,97.798,58.453,158.082c0,4.83-0.158,9.623-0.437,14.385h26.052
			c0.249-4.773,0.385-9.568,0.385-14.385C538.973,203.831,515.688,141.822,473.044,92.817z"/>
		<path d="M27.254,294.218H1.135c5.676,62.623,32.787,120.753,77.796,165.761c2.044,2.044,4.125,4.037,6.222,6.007l18.478-18.478
			C61.59,408.328,33.378,354.494,27.254,294.218z"/>
		<path d="M92.88,472.981c47.707,41.515,107.739,64.667,171.402,65.865v-26.003c-58.255-1.229-111.537-23.017-152.877-58.387
			L92.88,472.981z"/>
		<path d="M26,269.423c0-60.285,22.032-115.514,58.454-158.083L65.929,92.816C23.285,141.822,0,203.831,0,269.423
			c0,4.816,0.135,9.611,0.385,14.385h26.052C26.158,279.046,26,274.253,26,269.423z"/>
		<path d="M274.691,512.843v26.003c63.663-1.198,123.695-24.352,171.401-65.866l-18.524-18.524
			C386.229,489.826,332.946,511.615,274.691,512.843z"/>
		<path d="M264.282,26.002V0C194.248,1.318,128.601,29.197,78.931,78.867c-2.044,2.044-4.037,4.125-6.007,6.222l18.478,18.478
			C134.78,57.021,196.126,27.44,264.282,26.002z"/>
		<path fill="#EE3553" d="M87.309,269.423c0-7.939,0.511-15.76,1.496-23.431l-14.299-6.163c-1.462,9.729-2.197,19.606-2.197,29.594
			c0,26.612,5.215,52.437,15.501,76.755c9.932,23.481,24.147,44.567,42.25,62.671c5.711,5.711,11.721,11.033,18.007,15.958
			l6.164-14.302C113.385,377.097,87.309,326.308,87.309,269.423z"/>
		<path fill="#EE3553" d="M408.912,408.849c5.711-5.711,11.033-11.721,15.958-18.007l-14.302-6.164
			c-33.408,40.846-84.197,66.923-141.082,66.923c-7.939,0-15.759-0.511-23.43-1.495l-6.163,14.299
			c9.728,1.461,19.604,2.196,29.593,2.196c26.612,0,52.437-5.216,76.755-15.501C369.723,441.167,390.809,426.953,408.912,408.849z"
			/>
		<path fill="#EE3553" d="M451.664,269.423c0,7.939-0.511,15.759-1.495,23.43l14.299,6.163c1.461-9.728,2.196-19.604,2.196-29.593
			c0-26.612-5.216-52.436-15.501-76.755c-9.933-23.481-24.147-44.567-42.251-62.671c-5.711-5.711-11.72-11.033-18.006-15.958
			l-6.164,14.302C425.588,161.75,451.664,212.539,451.664,269.423z"/>
		<path fill="#EE3553" d="M269.486,87.246c7.939,0,15.76,0.511,23.431,1.496l6.163-14.299c-9.729-1.462-19.605-2.197-29.594-2.197
			c-26.612,0-52.436,5.215-76.755,15.501c-23.481,9.932-44.567,24.147-62.671,42.25c-5.711,5.711-11.033,11.72-15.957,18.006
			l14.301,6.164C161.813,113.322,212.602,87.246,269.486,87.246z"/>
	</g>
</g>
</svg>
