<?xml version="1.0" encoding="utf-8"?>
<!-- Generator: Adobe Illustrator 16.0.0, SVG Export Plug-In . SVG Version: 6.00 Build 0)  -->
<!DOCTYPE svg PUBLIC "-//W3C//DTD SVG 1.1//EN" "http://www.w3.org/Graphics/SVG/1.1/DTD/svg11.dtd">
<svg version="1.1" xmlns="http://www.w3.org/2000/svg" xmlns:xlink="http://www.w3.org/1999/xlink" x="0px" y="0px"
	 width="230.777px" height="211.479px" viewBox="0 0 230.777 211.479" enable-background="new 0 0 230.777 211.479"
	 xml:space="preserve">
<g id="Layer_1">
</g>
<g id="Layer_2">
	<path d="M168.056,211.479H62.833c-20.396,0-36.06-4.115-46.558-12.231C5.476,190.898,0,178.359,0,161.979
		c0-26.903,22.546-37.611,31.104-40.705c-1.509-10.478,1.724-26.819,10.531-39.294c8.357-11.837,20.453-18.578,34.979-19.494
		c1.65-0.104,3.289-0.157,4.869-0.157c26.345,0,36.794,14.607,41.817,21.626c0.709,0.992,1.556,2.175,2.105,2.791
		c0.415-0.19,1.069-0.553,1.584-0.837c2.715-1.501,6.815-3.771,13.761-3.771c5.908,0,12.695,1.616,20.752,4.939
		c24.665,10.174,21.526,40.685,19.731,50.82c6.86,2.589,21.434,11.038,21.434,36.082c0,32.703-34.046,37.428-34.39,37.472
		L168.056,211.479z M81.482,69.329c-1.435,0-2.924,0.048-4.429,0.143c-12.514,0.789-22.506,6.356-29.7,16.545
		c-8.964,12.696-10.882,29.452-8.821,36.666l1.001,3.506l-3.543,0.857C34.813,127.336,7,134.501,7,161.979
		c0,28.598,18.263,42.5,55.833,42.5h104.755c2.757-0.412,28.078-4.905,28.078-30.5c0-26.489-18.316-30.078-19.096-30.218
		l-3.679-0.66l0.877-3.631c0.088-0.358,8.604-36.212-14.938-45.923c-7.093-2.926-13.177-4.41-18.082-4.41
		c-5.138,0-8.04,1.606-10.372,2.896c-1.709,0.946-3.322,1.839-5.307,1.839c-0.438,0-0.877-0.046-1.304-0.138
		c-2.455-0.526-4.01-2.699-6.161-5.706C112.603,81.034,104.228,69.329,81.482,69.329z"/>
	<rect x="79.905" y="36.145" transform="matrix(0.7833 0.6217 -0.6217 0.7833 44.1406 -47.3319)" width="20.108" height="7"/>
	<rect x="109.29" y="13.145" transform="matrix(0.3565 0.9343 -0.9343 0.3565 92.4247 -100.8989)" width="20.336" height="7"/>
	<rect x="152.834" y="0.324" transform="matrix(0.9936 0.1129 -0.1129 0.9936 2.285 -17.5719)" width="7" height="22.142"/>
	<rect x="186.959" y="13.07" transform="matrix(0.7947 0.607 -0.607 0.7947 53.9138 -110.6053)" width="7" height="22.651"/>
	<rect x="211.709" y="43.792" transform="matrix(0.3524 0.9358 -0.9358 0.3524 190.9747 -165.6907)" width="7" height="22.706"/>
	<rect x="207.608" y="89.395" transform="matrix(0.9802 0.1982 -0.1982 0.9802 22.7602 -41.5614)" width="22.7" height="7"/>
	<rect x="194.458" y="123.895" transform="matrix(0.7928 0.6094 -0.6094 0.7928 120.109 -98.5542)" width="21.126" height="7"/>
	<g>
		<path d="M189.844,103.229c3.228-5.834,4.864-12.844,4.864-20.834c0-25.916-21.084-47-47-47c-16.23,0-30.992,8.153-39.676,21.83
			l5.879,3.78c7.389-11.662,19.972-18.61,33.797-18.61c22.056,0,40,17.944,40,40c0,6.127-1.093,11.504-3.251,16.011
			c-0.237-0.328-0.489-0.698-0.746-1.083l4.18,8.264C188.57,105.069,189.242,104.319,189.844,103.229z"/>
	</g>
</g>
</svg>
